# xmcd
#
# Track frame offsets:
#	150
#	23482
#	46520
#	69517
#	92297
#	115195
#	137255
#	159540
#
# Disc length: 2606 seconds
#
# Revision: 14
# Processed by: cddbd v1.5.2PL0 Copyright (c) Steve Scherf et al.
# Submitted via: EasyCDDAExtractor 15.3.0.1
#
DISCID=4e0a2c08
DTITLE=Victor Manuelle - A Pesar De Todo
DYEAR=1997
DGENRE=Latin
TTITLE0=Asi Es La Mujer
TTITLE1=Dile A Ella
TTITLE2=Nuestra Historia
TTITLE3=Le Hare Feliz
TTITLE4=He Tratado
TTITLE5=No Hace Falta Nada
TTITLE6=El Aguila
TTITLE7=Remix (Apiadate De Mi, Voy A Prometerme, Como Una Estrella, Hay Que Po
TTITLE7=ner El Alma)
EXTD=
EXTT0=
EXTT1=
EXTT2=
EXTT3=
EXTT4=
EXTT5=
EXTT6=
EXTT7=
PLAYORDER=
